<svg xmlns="http://www.w3.org/2000/svg" width="16" height="16" viewBox="0 0 16 16"><defs><style>.cls-1{fill:#ef4644;fill-rule:evenodd}</style></defs><path id="Icon_copy_3" data-name="Icon copy 3" class="cls-1" d="M7.08 9.341a8.5 8.5 0 0 1-2.335 1.951 8.506 8.506 0 0 1 1.941-2.343A8.5 8.5 0 0 1 9.021 7 8.5 8.5 0 0 1 7.08 9.341zm1.62 3.151s4-2.925 4.286-3.368c0 0 2.131 2.229-3.823 6.875-.005.001.237-2.652-.463-3.507zM3.512 7.329s2.909-4.013 3.351-4.3c0 0-2.235-2.123-6.859 3.849-.004 0 2.652-.253 3.508.451zM5.3 12.411l-.437-.432a6.045 6.045 0 0 1-3.243 2.379 6.042 6.042 0 0 1 2.343-3.27l-.436-.431S1.114 11.7 0 16c4.284-1.166 5.3-3.589 5.3-3.589zm4.317-8.176a.352.352 0 1 0 .01-.7.358.358 0 0 0-.35.349.346.346 0 0 0 .34.351zm.545 1.288a.348.348 0 0 0-.354.35.351.351 0 0 0 .7.006.345.345 0 0 0-.346-.356zm-.183-.575a.372.372 0 0 0-.359-.353.351.351 0 0 0-.343.363.346.346 0 0 0 .355.339.353.353 0 0 0 .347-.349zm2.165-2.172a.351.351 0 0 0 .356-.352.349.349 0 0 0-.7.009.338.338 0 0 0 .345.343zm-1.057 0a.344.344 0 0 0 .342-.35.349.349 0 0 0-.348-.347.353.353 0 0 0-.355.351.357.357 0 0 0 .362.346zm-.935.533a.349.349 0 1 0-.344-.349.348.348 0 0 0 .344.35zm.938 2.746a.363.363 0 0 0-.363.346.358.358 0 0 0 .345.354.35.35 0 0 0 .359-.346.344.344 0 0 0-.341-.354zm2.161-2.176a.358.358 0 0 0 .353.355.352.352 0 0 0 .348-.348.351.351 0 1 0-.701-.007zM15.437.557S10.774-3.055 4.01 8.127l1.424 1.419 2.881-2.892A.754.754 0 0 1 9.367 7.7l-2.881 2.9 1.424 1.414C19.064 5.208 15.436.557 15.436.557zm-3.822 6.619a2.762 2.762 0 1 1 2.763-2.758 2.766 2.766 0 0 1-2.763 2.758zm1.806-4.218a.353.353 0 0 0-.348-.347.35.35 0 1 0 0 .7.356.356 0 0 0 .348-.353zm-1.807.084a1.372 1.372 0 1 0 1.376 1.382 1.374 1.374 0 0 0-1.376-1.381zm1.992 1.552a.367.367 0 0 0-.356.355.344.344 0 0 0 .35.351.349.349 0 0 0 .354-.349.357.357 0 0 0-.348-.356z"/></svg>